<svg t="1656156601007" class="icon" viewBox="0 0 1027 1024" version="1.1" xmlns="http://www.w3.org/2000/svg" p-id="2858" width="200" height="200"><path d="M1027.5 958.1H1.3V302.9h1026.2v655.2z m-1010.2-16h994.2V318.9H17.3v623.2z" fill="" p-id="2859"></path><path d="M66.4 391.6h113.9V506H66.4z" fill="#66BFBF" p-id="2860"></path><path d="M188.3 514H58.4V383.6h129.9V514zM74.4 498h97.9v-98.4H74.4V498z" fill="" p-id="2861"></path><path d="M223.2 391.6h113.9V506H223.2z" fill="#66BFBF" p-id="2862"></path><path d="M345.1 514H215.2V383.6h129.9V514z m-113.9-16h97.9v-98.4h-97.9V498z" fill="" p-id="2863"></path><path d="M380.2 391.6h113.9V506H380.2z" fill="#66BFBF" p-id="2864"></path><path d="M502.1 514H372.2V383.6h129.9V514z m-113.9-16h97.9v-98.4h-97.9V498z" fill="" p-id="2865"></path><path d="M537.1 391.6H651V506H537.1z" fill="#66BFBF" p-id="2866"></path><path d="M659 514H529.1V383.6H659V514z m-113.9-16H643v-98.4h-97.9V498z" fill="" p-id="2867"></path><path d="M66.4 577.5h113.9v114.4H66.4z" fill="#66BFBF" p-id="2868"></path><path d="M188.3 699.9H58.4V569.5h129.9v130.4z m-113.9-16h97.9v-98.4H74.4v98.4z" fill="" p-id="2869"></path><path d="M66.4 763.4h113.9v114.4H66.4z" fill="#66BFBF" p-id="2870"></path><path d="M188.3 885.8H58.4V755.4h129.9v130.4z m-113.9-16h97.9v-98.4H74.4v98.4z" fill="" p-id="2871"></path><path d="M223.2 763.4h584.7v114.4H223.2z" fill="#F76B8A" p-id="2872"></path><path d="M815.9 885.8H215.2V755.4h600.7v130.4z m-584.7-16h568.7v-98.4H231.2v98.4z" fill="" p-id="2873"></path><path d="M223.2 577.5h113.9v114.4H223.2z" fill="#66BFBF" p-id="2874"></path><path d="M345.1 699.9H215.2V569.5h129.9v130.4z m-113.9-16h97.9v-98.4h-97.9v98.4z" fill="" p-id="2875"></path><path d="M380.2 577.5h113.9v114.4H380.2z" fill="#66BFBF" p-id="2876"></path><path d="M502.1 699.9H372.2V569.5h129.9v130.4z m-113.9-16h97.9v-98.4h-97.9v98.4z" fill="" p-id="2877"></path><path d="M537.1 577.5H651v114.4H537.1z" fill="#66BFBF" p-id="2878"></path><path d="M659 699.9H529.1V569.5H659v130.4z m-113.9-16H643v-98.4h-97.9v98.4z" fill="" p-id="2879"></path><path d="M693.9 391.6h113.9V506H693.9z" fill="#66BFBF" p-id="2880"></path><path d="M815.8 514H685.9V383.6h129.9V514z m-113.9-16h97.9v-98.4h-97.9V498z" fill="" p-id="2881"></path><path d="M849.8 391.6v185.9H693.9v114.4h269.8V391.6z" fill="#F76B8A" p-id="2882"></path><path d="M971.7 699.9H685.9V569.5h155.9V383.6h129.9v316.3z m-269.8-16h253.8V399.6h-97.9v185.9H701.9v98.4z" fill="" p-id="2883"></path><path d="M849.8 763.4h113.9v114.4H849.8z" fill="#66BFBF" p-id="2884"></path><path d="M971.7 885.8H841.8V755.4h129.9v130.4z m-113.9-16h97.9v-98.4h-97.9v98.4z" fill="" p-id="2885"></path><path d="M750.9 316.2c-2.7 0-5.3-1.3-6.8-3.7-2.4-3.7-1.2-8.7 2.5-11 0.6-0.4 59.3-38 67.7-92.3 4.3-27.4-5-54.9-27.6-81.7-0.2-0.3-0.4-0.5-0.6-0.8-0.1-0.2-13.4-20-41.4-33.1-37.6-17.6-82.6-15.4-133.8 6.6-11.2 5.1-248.2 112.3-291.6 123.9-3.5 1.3-23.2 8.3-48.8 8.3-16.3 0-35.1-2.8-53.7-11.7-34-16.2-58.6-48.5-73.3-96-1.3-4.2 1.1-8.7 5.3-10 4.2-1.3 8.7 1.1 10 5.3 13.3 43 35.2 72 64.9 86.3 43.6 20.8 89.7 3 90.2 2.8l0.9-0.3c40.9-10.6 287-122 289.5-123.1 0 0 0.1 0 0.2-0.1 69.8-29.9 118.9-19.7 147.9-6 29.7 14.1 44.5 34.6 46.9 38 25.5 30.4 35.9 62.1 30.9 94.2-9.6 61.6-72.3 101.6-75 103.3-1.4 0.7-2.8 1.1-4.3 1.1z" fill="" p-id="2886"></path></svg>
