<svg t="1651406626523" class="icon" viewBox="0 0 1024 1024" version="1.1" xmlns="http://www.w3.org/2000/svg" p-id="5491" width="48" height="48"><path d="M211.2 518C94.8 518 0 612.3 0 728.7s94.8 210.7 211.2 210.7c116.4 0 211.2-94.2 211.2-210.7S327.7 518 211.2 518z m0 380.9c-94.2 0-170.8-76-170.8-170.2S117 558.5 211.2 558.5 382 634.5 382 728.7s-76.5 170.2-170.8 170.2zM812.8 518c-116.4 0-211.2 94.2-211.2 210.7s94.8 210.7 211.2 210.7c116.4 0 211.2-94.2 211.2-210.7S929.2 518 812.8 518z m0 380.9c-94.2 0-170.8-76-170.8-170.2s76.5-170.2 170.8-170.2 170.8 76 170.8 170.2S907 898.9 812.8 898.9zM367.6 241.4c43.2 0 78.2-34.9 78.2-78.2 0-3.3-1.1-6.7-1.1-10l33.3-21.6c6.1-3.9 5.5-12.8-0.6-16.1-22.2-13.3-76.5-37.1-122-29.4-2.8 0.6-5 1.1-7.8 1.7l-10 3.3-3.3 1.7c-3.3 1.7-6.7 3.3-10 5.5-0.6 0.6-1.1 0.6-1.7 1.1-3.3 2.8-6.7 5-10 8.3l-1.7 1.7c-0.6 1.1-1.7 1.7-2.8 2.8-1.7 2.2-2.8 3.9-4.4 6.1-0.6 0.6-1.1 1.1-1.7 2.2-2.2 3.9-4.4 7.2-5.5 10.5l-1.7 3.3v0.6c-3.3 8.3-5.5 18.3-5.5 28.3 0.1 43.2 35 78.2 78.3 78.2z" p-id="5492" fill="#b7d28d"></path><path d="M731.8 421.6c-59.9-88.2-161.3-141.4-187.4-154.7-61.5-30.5-101.5-20-101.5-20-48.2 10-68.2 94.3-93.7 123.6-25.5 29.4-180.7 21.1-192.9 31.6-12.8 10 108.1 41 185.2 29.4 79.3-12.2 82.6-106.4 125.3-79.3 45.5 29.9 79.3 89.8 31.6 137.5-37.1 39.4-8.3 286.6 32.7 314.4 39.4 21.6-34.4-95.9 6.7-192.4 61.5-118.6 232.8-93.1 194-190.1z" p-id="5493" fill="#b7d28d"></path></svg>
